<svg xmlns="http://www.w3.org/2000/svg" width="24" height="16" fill="none"><path d="m16.021 8.046 3.915 3.915-3.915 3.914-3.914-3.915 3.914-3.914Z" fill="#BC4749"/><path d="m8.188 8.042 3.913 3.913-3.913 3.913-3.912-3.913 3.912-3.913Z" fill="#161616"/><path fill="#BC4749" d="m12.112 4.135 3.918 3.918-3.918 3.918-3.918-3.918z"/><path fill="#BC4749" d="M4.283 4.135 8.2 8.053 4.283 11.97.365 8.053z"/><path d="m16.025.217 3.918 3.918-3.918 3.918-3.918-3.918L16.025.217Z" fill="#fff"/><path d="m8.196.217 3.918 3.918-3.918 3.918-3.918-3.918L8.196.217ZM19.94 4.131l3.918 3.918-3.918 3.918-3.918-3.918z" fill="#BC4749"/><path d="M12.112 4.131 16.03 8.05l-3.918 3.918L8.194 8.05l3.918-3.918Z" fill="#BC4749"/></svg>